<?xml version="1.0" standalone="no"?>
<!DOCTYPE svg PUBLIC "-//W3C//DTD SVG 20010904//EN"
 "http://www.w3.org/TR/2001/REC-SVG-20010904/DTD/svg10.dtd">
<svg version="1.0" xmlns="http://www.w3.org/2000/svg"
 width="1024.000000pt" height="1024.000000pt" viewBox="0 0 1024.000000 1024.000000"
 preserveAspectRatio="xMidYMid meet">
<metadata>
Created by potrace 1.16, written by Peter Selinger 2001-2019
</metadata>
<g transform="translate(0.000000,1024.000000) scale(0.100000,-0.100000)"
fill="#000000" stroke="none">
<path d="M4982 9174 c-174 -46 -306 -193 -346 -384 -5 -24 -11 -26 -128 -44
-715 -108 -1437 -463 -1958 -963 l-111 -106 68 -69 c37 -37 71 -68 76 -68 5 0
57 44 115 98 541 500 1186 813 1893 920 l57 9 13 -41 c35 -106 146 -227 255
-278 372 -174 783 176 679 577 -34 129 -139 262 -249 313 -109 52 -254 66
-364 36z m234 -201 c69 -23 155 -110 179 -182 46 -139 -19 -292 -153 -358 -74
-36 -172 -39 -244 -6 -65 30 -132 102 -157 169 -89 235 134 459 375 377z"/>
<path d="M6017 8683 c-10 -17 -50 -184 -45 -188 2 -3 67 -23 144 -44 677 -193
1287 -596 1730 -1145 94 -115 94 -116 51 -166 -118 -139 -133 -394 -32 -566
32 -54 134 -148 196 -179 192 -98 426 -60 579 94 69 69 104 139 126 254 22
115 10 209 -41 313 -100 204 -342 317 -555 259 l-55 -15 -25 28 c-14 16 -61
73 -105 128 -103 127 -340 365 -478 479 -397 329 -858 577 -1312 708 -157 45
-173 48 -178 40z m2399 -1581 c137 -70 201 -238 140 -368 -52 -113 -142 -176
-251 -177 -170 -3 -300 120 -300 283 0 119 82 235 192 273 63 22 164 17 219
-11z"/>
<path d="M1843 7366 c-363 -88 -490 -528 -234 -808 l51 -56 -45 -118 c-193
-506 -273 -1089 -221 -1604 25 -248 77 -537 127 -703 18 -60 22 -67 41 -61 11
3 49 14 85 25 36 10 68 20 70 23 3 2 -11 69 -31 148 -71 289 -96 509 -96 848
0 325 32 588 105 880 34 136 101 345 136 426 l19 45 62 -7 c132 -13 279 30
384 113 137 110 207 327 158 494 -38 129 -141 262 -243 314 -103 52 -254 68
-368 41z m262 -200 c59 -27 119 -90 148 -155 29 -61 30 -179 3 -233 -47 -97
-147 -160 -261 -166 -65 -4 -75 -1 -145 35 -87 45 -132 96 -156 180 -38 131
27 267 158 333 80 39 177 42 253 6z"/>
<path d="M4158 6830 c-297 -50 -541 -286 -602 -582 -82 -396 154 -779 539
-878 96 -24 270 -27 363 -5 l62 15 62 -50 c217 -175 547 -232 812 -140 87 30
206 95 262 145 l52 44 73 -15 c104 -22 300 -14 389 16 206 69 354 198 445 385
54 111 75 205 75 330 0 289 -155 544 -405 665 -122 59 -190 74 -335 75 -141 0
-222 -19 -341 -81 l-65 -35 -65 30 c-113 53 -208 73 -354 74 -152 1 -237 -15
-360 -68 -78 -34 -85 -35 -107 -21 -44 29 -169 75 -243 91 -79 16 -179 18
-257 5z m300 -220 c34 -12 62 -24 62 -26 0 -3 -23 -33 -51 -67 -74 -91 -146
-244 -171 -363 -36 -173 -12 -358 67 -514 19 -37 31 -70 28 -74 -4 -3 -53 -6
-110 -6 -123 0 -221 27 -310 86 -143 96 -233 269 -233 451 0 240 182 468 423
529 74 19 216 11 295 -16z m836 6 c224 -72 394 -250 452 -475 24 -97 16 -263
-18 -359 -83 -231 -284 -394 -532 -432 -258 -39 -538 112 -657 355 -51 104
-69 180 -69 285 0 170 56 311 172 435 37 40 93 90 123 110 56 37 161 80 230
95 58 13 242 4 299 -14z m775 9 c187 -44 348 -202 405 -394 20 -68 20 -198 1
-271 -50 -188 -200 -341 -390 -395 -56 -17 -238 -25 -251 -13 -3 3 4 21 15 39
11 19 32 66 46 104 108 284 55 584 -147 826 -29 36 -35 49 -25 57 15 13 105
49 137 55 54 10 148 6 209 -8z"/>
<path d="M8608 5996 c-42 -11 -79 -24 -83 -27 -3 -4 1 -33 9 -65 23 -91 54
-257 71 -384 22 -162 31 -545 16 -722 -28 -333 -109 -679 -233 -993 l-39 -100
-122 -1 c-102 -1 -132 -4 -182 -24 -149 -58 -245 -158 -297 -309 -89 -261 85
-574 350 -630 274 -58 527 94 597 360 19 70 19 145 0 244 -19 98 -41 145 -100
212 l-46 53 54 142 c157 410 224 761 234 1225 6 302 -4 471 -42 700 -22 128
-32 176 -66 306 -11 43 -13 43 -121 13z m-279 -2492 c106 -31 188 -143 198
-268 5 -57 2 -72 -24 -128 -16 -35 -45 -78 -64 -97 -86 -86 -232 -112 -334
-59 -183 96 -226 317 -89 467 81 90 194 121 313 85z"/>
<path d="M3449 5285 c-378 -136 -447 -181 -550 -357 -97 -166 -103 -195 -164
-803 -14 -137 -25 -280 -25 -317 l0 -68 320 0 320 0 -5 -57 c-10 -109 -25
-327 -25 -355 l0 -28 1807 0 1806 0 -7 158 c-3 86 -9 185 -13 220 l-6 62 322
0 c302 0 322 1 318 18 -17 60 -27 131 -32 232 -13 246 -59 607 -91 720 -32
111 -87 236 -127 289 -52 67 -133 134 -211 173 -75 38 -595 220 -611 214 -6
-2 -58 -94 -114 -204 l-103 -201 -136 49 c-76 26 -194 69 -264 94 l-127 45
-21 -37 c-12 -20 -130 -239 -263 -487 l-242 -450 -89 0 -88 0 -259 480 c-142
264 -260 483 -261 488 -2 5 -385 -125 -518 -177 -11 -5 -41 44 -120 199 -67
131 -110 204 -120 204 -8 0 -144 -47 -301 -104z m284 -246 l66 -125 -63 -42
c-86 -57 -176 -156 -225 -251 -51 -97 -98 -238 -106 -316 -8 -77 -35 -293 -41
-322 l-4 -23 -225 0 -225 0 0 28 c0 47 29 337 50 497 24 186 62 300 130 394
43 58 145 128 243 165 117 45 332 124 333 122 1 0 31 -58 67 -127z m3034 31
c231 -88 254 -100 330 -173 95 -91 143 -199 168 -375 22 -151 55 -482 55 -542
l0 -50 -225 0 c-124 0 -225 3 -225 7 0 3 -11 101 -25 217 -28 231 -49 310
-116 435 -64 119 -132 197 -229 264 -25 16 -47 32 -49 33 -5 4 122 254 129
254 3 0 87 -31 187 -70z m-2104 -633 l249 -467 198 0 197 0 248 466 c137 256
253 468 260 470 17 7 470 -151 524 -182 25 -15 73 -55 106 -88 50 -51 67 -79
104 -166 24 -57 48 -118 53 -135 14 -47 88 -715 88 -796 l0 -29 -1585 0 -1585
0 4 23 c3 12 8 67 11 122 8 127 31 335 50 445 8 47 15 103 15 125 0 58 35 175
76 258 41 81 135 185 204 226 53 31 498 201 520 198 8 -1 124 -208 263 -470z"/>
<path d="M1826 3769 c-124 -31 -266 -140 -315 -242 -94 -195 -53 -439 97 -585
134 -131 318 -180 493 -129 l44 13 44 -56 c416 -519 951 -918 1546 -1153 162
-64 341 -121 359 -114 15 6 60 167 49 177 -4 4 -55 22 -113 39 -383 119 -790
340 -1137 617 -131 105 -373 343 -490 482 -93 109 -95 113 -79 135 96 130 120
205 114 350 -3 73 -11 118 -27 159 -48 124 -165 241 -289 289 -65 25 -230 35
-296 18z m241 -221 c75 -28 145 -98 168 -169 37 -112 2 -243 -87 -326 -83 -76
-188 -88 -300 -36 -121 57 -182 145 -183 263 -1 204 205 342 402 268z"/>
<path d="M7525 2504 c-429 -408 -1022 -726 -1603 -858 -91 -21 -188 -40 -314
-61 -21 -3 -28 0 -28 12 0 36 -67 148 -121 203 -160 163 -419 192 -610 69
-152 -97 -240 -271 -225 -445 16 -194 142 -368 313 -435 87 -33 221 -38 311
-10 113 34 210 109 273 211 23 37 59 137 59 165 0 28 -11 25 175 55 563 94
1122 337 1595 695 111 84 296 243 360 309 l44 46 -64 65 c-35 36 -67 65 -70
65 -3 -1 -45 -39 -95 -86z m-2278 -803 c57 -29 128 -112 149 -173 79 -240
-180 -466 -408 -355 -128 63 -195 217 -153 351 54 172 255 258 412 177z"/>
</g>
</svg>
