<?xml version="1.0" standalone="no"?>
<!DOCTYPE svg PUBLIC "-//W3C//DTD SVG 20010904//EN"
 "http://www.w3.org/TR/2001/REC-SVG-20010904/DTD/svg10.dtd">
<svg version="1.0" xmlns="http://www.w3.org/2000/svg"
 width="1024.000000pt" height="1024.000000pt" viewBox="0 0 1024.000000 1024.000000"
 preserveAspectRatio="xMidYMid meet">
<metadata>
Created by potrace 1.16, written by Peter Selinger 2001-2019
</metadata>
<g transform="translate(0.000000,1024.000000) scale(0.100000,-0.100000)"
fill="#000000" stroke="none">
<path d="M4410 9109 c-399 -35 -770 -139 -1125 -314 -458 -226 -832 -536
-1135 -940 -273 -365 -474 -808 -564 -1245 -50 -245 -60 -355 -60 -650 0 -295
10 -405 60 -650 71 -343 225 -728 414 -1028 342 -545 851 -980 1440 -1230 795
-338 1697 -334 2498 9 126 54 290 139 388 200 34 22 65 39 70 39 5 0 29 -32
53 -71 24 -39 66 -99 95 -132 134 -163 1436 -1670 1490 -1725 148 -154 326
-252 456 -252 104 0 186 63 215 165 47 160 -27 416 -182 632 -50 70 -1518
1778 -1561 1817 l-21 19 81 86 c102 109 273 337 358 478 385 639 532 1369 424
2113 -166 1148 -981 2132 -2084 2515 -406 141 -888 201 -1310 164z m650 -574
c495 -77 917 -260 1300 -563 52 -41 154 -134 225 -206 411 -413 664 -940 736
-1531 15 -129 15 -421 0 -550 -60 -493 -252 -952 -557 -1335 -83 -104 -283
-305 -384 -386 -625 -504 -1408 -703 -2196 -558 -980 179 -1788 904 -2060
1848 -81 280 -115 589 -95 867 37 517 206 968 520 1389 96 129 323 362 451
464 401 319 891 519 1410 575 127 14 525 6 650 -14z"/>
</g>
</svg>
