<?xml version="1.0" standalone="no"?>
<!DOCTYPE svg PUBLIC "-//W3C//DTD SVG 20010904//EN"
 "http://www.w3.org/TR/2001/REC-SVG-20010904/DTD/svg10.dtd">
<svg version="1.0" xmlns="http://www.w3.org/2000/svg"
 width="2048.000000pt" height="2048.000000pt" viewBox="0 0 2048.000000 2048.000000"
 preserveAspectRatio="xMidYMid meet">
<metadata>
Created by potrace 1.16, written by Peter Selinger 2001-2019
</metadata>
<g transform="translate(0.000000,2048.000000) scale(0.100000,-0.100000)"
fill="#000000" stroke="none">
<path d="M9775 20470 c-2775 -150 -4878 -1161 -6331 -3045 -1191 -1543 -1870
-3614 -2029 -6185 -40 -662 -40 -1334 0 -1997 140 -2278 682 -4145 1635 -5630
308 -479 647 -900 1045 -1298 714 -714 1524 -1248 2490 -1640 796 -324 1738
-542 2710 -629 396 -36 521 -41 1055 -41 536 0 713 7 1100 41 1619 143 2912
590 4034 1392 337 241 610 476 947 812 520 519 871 1004 1165 1605 311 639
486 1282 545 2005 15 186 15 643 0 830 -82 1012 -395 1882 -946 2625 -142 192
-283 354 -480 550 -354 355 -729 640 -1190 905 -147 84 -501 263 -636 321
l-56 24 -7 115 c-16 275 -65 646 -122 930 -457 2290 -1991 3549 -4324 3550
-1208 0 -2222 -363 -3045 -1091 -230 -203 -450 -451 -644 -728 -71 -100 -73
-104 -55 -121 11 -9 343 -239 739 -510 l719 -493 21 28 c158 220 289 367 449
501 511 429 1193 631 2001 593 1356 -63 2126 -736 2395 -2094 15 -77 26 -141
25 -143 -2 -2 -76 8 -166 22 -911 141 -2138 153 -2959 30 -891 -133 -1672
-454 -2265 -928 -123 -99 -341 -310 -445 -431 -368 -429 -610 -939 -705 -1486
-73 -420 -66 -878 21 -1294 233 -1115 1031 -1993 2204 -2428 704 -261 1496
-346 2302 -246 949 117 1740 474 2355 1063 525 503 925 1181 1174 1991 88 285
179 691 230 1025 12 80 23 147 25 149 7 8 319 -208 429 -296 218 -175 467
-435 622 -653 399 -558 595 -1276 561 -2060 -29 -695 -271 -1388 -692 -1985
-140 -198 -274 -354 -495 -575 -301 -301 -521 -485 -821 -689 -853 -579 -1824
-897 -3070 -1005 -579 -51 -1120 -56 -1650 -16 -2280 172 -3958 1065 -5037
2680 -814 1217 -1279 2805 -1408 4800 -95 1484 49 3084 391 4333 629 2297
1888 3788 3817 4518 1148 435 2625 593 4037 433 1946 -220 3455 -996 4507
-2316 403 -505 742 -1104 1018 -1797 78 -198 243 -683 286 -845 13 -49 29 -90
35 -93 12 -4 1705 445 1717 457 9 8 -66 275 -150 533 -275 848 -640 1618
-1089 2298 -782 1183 -1812 2100 -3039 2703 -1056 520 -2188 808 -3575 912
-250 19 -1123 27 -1375 14z m2135 -10524 c354 -29 656 -70 983 -133 l137 -27
0 -30 c0 -60 -41 -393 -71 -576 -119 -737 -352 -1321 -683 -1718 -369 -442
-835 -679 -1508 -768 -167 -22 -582 -30 -745 -15 -664 63 -1232 323 -1539 705
-208 259 -304 532 -304 867 0 161 19 286 65 426 185 557 695 957 1470 1152
281 70 566 109 950 131 235 13 1019 4 1245 -14z"/>
</g>
</svg>
