<?xml version="1.0" standalone="no"?>
<!DOCTYPE svg PUBLIC "-//W3C//DTD SVG 20010904//EN"
 "http://www.w3.org/TR/2001/REC-SVG-20010904/DTD/svg10.dtd">
<svg version="1.0" xmlns="http://www.w3.org/2000/svg"
 width="512.000000pt" height="512.000000pt" viewBox="0 0 512.000000 512.000000"
 preserveAspectRatio="xMidYMid meet">
<metadata>
Created by potrace 1.16, written by Peter Selinger 2001-2019
</metadata>
<g transform="translate(0.000000,512.000000) scale(0.100000,-0.100000)"
fill="#000000" stroke="none">
<path d="M2353 4435 c-222 -40 -442 -155 -602 -314 -97 -96 -165 -191 -227
-316 -175 -357 -153 -784 57 -1120 97 -155 273 -323 423 -401 l54 -28 -112
-46 c-235 -95 -408 -212 -587 -397 -260 -269 -424 -629 -455 -999 -6 -80 -6
-81 24 -115 26 -29 36 -34 72 -33 70 2 89 31 106 159 34 260 105 451 243 657
85 126 140 189 247 282 405 354 954 460 1457 280 359 -128 671 -412 830 -755
76 -162 109 -279 132 -463 15 -122 31 -149 92 -161 36 -6 72 10 101 44 17 21
9 160 -18 292 -103 504 -428 927 -889 1154 -59 29 -136 63 -172 76 l-67 23 75
43 c499 284 710 895 496 1433 -147 367 -479 637 -867 705 -107 18 -312 18
-413 0z m402 -201 c267 -51 532 -254 661 -507 44 -85 83 -224 96 -335 20 -184
-16 -364 -109 -542 -91 -175 -234 -313 -418 -405 -158 -78 -246 -99 -420 -99
-173 -1 -274 22 -420 94 -438 215 -649 727 -485 1177 86 235 256 427 475 535
201 100 391 125 620 82z"/>
</g>
</svg>
